<svg width="180" height="115" viewBox="0 0 180 115" fill="none" xmlns="http://www.w3.org/2000/svg">
<path d="M106.638 48.7935V80.1349H119.67V78.5251H110.983V59.8613C113.283 59.8613 115.867 59.8613 115.867 59.8613V58.9052C115.867 58.9052 113.285 58.9052 110.983 58.9052V49.7577C115.031 49.7577 119.67 49.7577 119.67 49.7577V48.7999H106.638V48.7935Z" fill="#BB4251"/>
<path d="M122.121 58.0542V89.3956H135.153V87.7858H126.466V69.1221C128.766 69.1221 131.35 69.1221 131.35 69.1221V68.1659C131.35 68.1659 128.768 68.1659 126.466 68.1659V59.0185C130.514 59.0185 135.153 59.0104 135.153 59.0104V58.0542H122.121Z" fill="#BB4251"/>
<path d="M166.975 82.9353C166.613 81.4581 165.706 80.2302 164.694 79.2222C162.339 76.8779 159.404 75.5367 156.757 73.7069C155.134 72.5857 153.412 71.3545 152.066 69.8111C151.522 69.1968 151.165 68.4387 151.038 67.6269C151.038 67.5914 151.027 67.5558 151.022 67.5202C150.785 65.6095 151.89 63.7004 153.336 62.8283C154.25 62.2799 155.368 62.1569 156.384 62.0938C157.527 62.0237 158.674 62.1273 159.786 62.4012C161.122 62.7248 162.517 63.2522 163.529 64.3508C164.076 64.9445 164.115 65.6095 164.208 66.4168C164.431 68.3582 166.791 67.8535 166.41 66.0204C166.249 65.2471 165.698 64.6646 165.137 64.1954C161.595 61.2364 156.156 60.2948 152.01 61.9045C150.054 62.6633 148.21 64.21 147.532 66.4346C146.835 68.7287 147.511 71.348 148.816 73.2668C150.12 75.1856 151.968 76.5139 153.845 77.6545C155.722 78.7951 157.678 79.8014 159.383 81.2511C160.914 82.5453 162.31 84.4868 162.136 86.6564C161.778 91.1023 158.158 91.6718 154.839 91.1864C152.781 90.8871 151.169 90.2869 149.702 88.7968C147.644 86.7114 146.566 84.3428 146.114 80.3531C145.244 72.6618 144.973 65.6305 140.697 58.7076C138.076 54.4623 134.575 51.2945 130.529 48.4519C126.36 45.7663 121.532 44.1144 116.571 43.8879C112.205 43.7147 107.862 44.5912 103.904 46.4441V42.1066H99.5542V48.913C95.9807 51.3398 92.9254 54.4364 90.1428 57.7531V56.0867C90.1428 54.3609 90.1428 52.6352 90.1428 50.9095C90.1428 47.9973 89.7829 43.134 91.0209 40.3626C91.7633 38.6994 92.488 37.7982 93.5629 36.3438C94.767 34.7146 95.7758 33.362 97.0315 31.7425C99.5348 28.5068 102.169 25.3584 105.055 22.5207L105.295 22.2877C104.136 22.2877 102.778 22.7908 101.221 23.7972C99.5414 24.9025 97.9636 26.1565 96.5069 27.5442C94.9601 28.9921 93.4925 30.5227 92.1103 32.1292C90.1574 34.5161 88.1737 37.0508 86.1594 39.7332C84.1452 42.4156 82.1911 45.1747 80.2973 48.0102H66.4717L70.5067 41.3025C73.0708 36.9796 75.5736 33.0471 78.0151 29.505C80.4566 25.963 82.9266 22.923 85.4251 20.3851C86.6453 20.4595 87.8203 20.4778 88.9501 20.4401C90.038 20.4077 91.1232 20.3143 92.2007 20.1602C93.0257 20.0729 93.8065 19.7424 94.4442 19.2105C95.1447 18.6507 95.5885 17.8515 95.7709 16.8063C95.7709 16.2099 95.5272 15.9117 95.0398 15.9117H94.7638C94.0923 16.8069 92.7038 17.4405 90.598 17.8127C88.2229 18.2071 85.8181 18.3939 83.4108 18.3708C81.1511 18.3708 78.8469 18.2781 76.4979 18.0925C74.149 17.907 71.997 17.6832 70.0419 17.4211C68.0878 17.1612 66.5314 16.919 65.3725 16.6947C62.9924 16.246 60.7489 15.8917 58.6421 15.6318C56.715 15.3829 54.7746 15.2521 52.8316 15.2402C44.9563 15.2402 39.3707 17.9987 36.0749 23.5157C35.2819 24.9318 34.8854 26.6834 34.8854 28.7705C34.8896 29.8491 35.0439 30.9218 35.3437 31.9577C35.6215 32.9847 36.0866 33.9513 36.7156 34.8084C36.9932 35.1368 37.3199 35.4201 37.6841 35.6481C38.0478 35.8996 38.4785 36.036 38.9204 36.0396C39.0974 36.0414 39.2725 36.0019 39.4316 35.9241C39.5907 35.8463 39.7296 35.7324 39.8372 35.5915C39.5918 35.5915 39.3158 35.4297 39.0108 35.0883C38.738 34.7953 38.4932 34.4774 38.2796 34.1386C37.8492 33.3944 37.634 32.4237 37.634 31.2264C37.634 29.5126 38.1527 27.7604 39.1899 25.97C40.9611 22.9154 43.5403 20.8122 46.9275 19.6603C50.3148 18.5083 53.9926 17.9302 57.961 17.9259C62.1596 17.944 66.3516 18.2619 70.5051 18.8772C74.8995 19.5103 79.0809 19.9763 83.0492 20.2751C81.6543 21.107 80.3501 22.0831 79.1578 23.1872C77.8456 24.3795 76.606 25.6496 75.4456 26.9908C72.8958 29.8719 70.5839 32.956 68.5328 36.2127C66.5486 39.3837 64.4579 42.6454 62.2607 45.9976C58.9638 51.2169 55.6954 56.3978 52.4555 61.5405C49.36 66.5158 45.6747 71.097 41.4802 75.184C39.7268 76.7737 37.7336 78.0755 35.5745 79.041C33.4699 79.9729 31.4405 80.4389 29.4865 80.4389C26.9815 80.4389 24.8295 79.5259 23.0304 77.6998C21.2313 75.8738 20.3312 72.8732 20.3301 68.698C20.3423 65.9575 20.9353 63.2508 22.0701 60.7575C23.2128 58.1744 24.7411 55.7805 26.6022 53.6582C28.338 51.6351 30.4137 49.9322 32.7355 48.6267C34.9628 47.3949 37.1148 46.7796 39.1916 46.7807C39.4966 46.7807 39.6176 46.6512 39.5579 46.3891C39.4982 46.127 39.2206 45.9976 38.7332 45.9976C36.1701 45.9976 33.6221 46.6318 31.0892 47.9002C28.5121 49.1955 26.1834 50.9366 24.2102 53.0434C22.1709 55.1954 20.5 57.67 19.2649 60.3676C18.0247 63.0474 17.3856 65.9671 17.3926 68.9212C17.3926 72.1279 18.0033 74.7165 19.2245 76.687C20.3707 78.598 22.0831 80.103 24.1231 80.9922C26.2188 81.897 28.4798 82.3538 30.7615 82.3334C34.5879 82.3553 38.3449 81.3101 41.6126 79.3145C44.9375 77.3018 48.0041 74.6739 50.8125 71.4306C53.6943 68.0884 56.3264 64.5378 58.6873 60.8076C61.1277 56.97 63.4169 53.2241 65.5549 49.5699H79.1966C77.3674 52.3278 75.6431 55.1235 74.0237 57.9569C72.4043 60.7904 70.985 63.5111 69.7659 66.1191C69.0976 67.5272 68.5464 68.9883 68.118 70.4873C67.7176 71.7926 67.5003 73.1473 67.4724 74.5126C67.4724 75.8544 67.7774 76.954 68.3875 77.8115C68.9976 78.6689 70.0661 79.0971 71.5929 79.096C73.8526 79.096 75.9126 78.3696 77.773 76.9168C79.6334 75.4639 81.9684 72.7243 84.7778 68.698C84.9392 68.4521 85.4525 67.889 85.7931 67.3341V92.4629H90.1428L90.1202 60.4808C90.1202 60.1249 90.1202 60.1022 90.1202 59.8337C93.0949 59.8337 96.5763 59.9081 99.5477 59.8984V92.4629H103.893V49.1832C107.257 47.6018 110.906 46.7212 114.619 46.5946C124.659 46.3147 134.072 51.9206 139.637 60.12C140.094 60.7801 140.516 61.4632 140.904 62.1666H137.611V93.5129H146.065V91.895H141.95V65.4833C142.405 66.8763 142.606 67.8292 143.012 69.329C144.927 76.4039 143.528 87.9167 151.879 91.4097C154.675 92.5892 157.788 92.7826 160.708 91.9581C162.525 91.4307 164.299 90.4713 165.55 88.8842C166.801 87.297 167.478 84.9997 166.975 82.9353ZM85.7995 60.9678V63.8217C85.7995 63.8217 84.4131 66.8957 83.3785 68.2903C82.3197 69.7237 81.2883 71.0973 80.6589 71.8852C79.3659 73.4827 77.8593 74.8938 76.1816 76.0787C75.0206 76.8251 74.1356 77.1977 73.5265 77.1967C72.4871 77.1967 71.9679 76.4136 71.969 74.8475C71.969 73.1347 72.4581 71.2709 73.4361 69.2561C74.2905 67.2446 75.6355 64.6727 77.4712 61.5405C79.3069 58.4083 81.3674 55.0539 83.6529 51.4773C84.363 50.3675 85.0958 49.3126 85.8124 48.2157L85.7995 60.9678ZM99.5542 58.3582C97.0331 58.3662 94.1521 58.3679 91.631 58.3695C93.7744 56.0122 96.4488 53.8249 99.0554 51.9789C99.2168 51.8624 99.3879 51.7524 99.5542 51.6391V58.3582Z" fill="#BB4251"/>
</svg>
