<svg width="720" height="827" viewBox="0 0 720 827" fill="none" xmlns="http://www.w3.org/2000/svg">
<path d="M720 306.732C673.129 304.88 626.495 314.266 583.993 334.106V287.698H537.342V360.571C499.455 387.303 465.452 419.151 436.303 455.206V437.386C436.303 418.884 436.303 400.407 436.303 381.955C436.303 350.789 432.435 298.542 445.785 268.968C453.058 253.547 462.204 239.081 473.017 225.897C485.988 208.456 496.836 193.973 510.338 176.683C536.774 141.916 565.538 108.981 596.433 78.1047L599.088 75.6023C583.173 76.7596 567.916 82.4136 555.092 91.9057C537.054 103.761 520.098 117.185 504.421 132.02C487.825 147.542 472.075 163.945 457.239 181.157C436.202 206.737 414.887 233.884 393.294 262.599C371.701 291.313 350.79 320.735 330.562 350.865H182.039L225.352 279.054C253.013 232.747 279.891 190.586 305.985 152.57C329.611 117.76 356.263 85.1018 385.633 54.9766C398.68 55.7349 411.347 55.9624 423.56 55.5074C435.237 55.1665 446.886 54.1792 458.453 52.5501C467.322 51.6239 475.717 48.0876 482.575 42.3889C490.399 35.9012 495.469 26.6867 496.76 16.6067C496.76 10.237 494.181 7.05219 489.174 7.05219H486.216C479.01 16.6067 464.066 23.4314 441.462 27.3746C415.945 31.6152 390.107 33.6197 364.242 33.3651C340.044 33.3651 315.239 32.3793 290.056 30.4078C264.872 28.4362 241.66 26.0096 220.724 23.2039C199.789 20.3982 182.797 17.82 170.585 15.6209C145.047 10.5656 120.95 6.77413 98.295 4.24647C77.592 1.55659 56.7434 0.138439 35.8667 0C-48.7366 0 -108.712 29.5484 -144.061 88.6451C-153.248 105.97 -157.771 125.386 -157.184 144.987C-157.124 156.534 -155.465 168.018 -152.253 179.11C-149.127 190.076 -143.982 200.362 -137.082 209.442C-134.155 212.968 -130.67 215.991 -126.766 218.39C-122.866 221.101 -118.241 222.58 -113.491 222.636C-111.593 222.654 -109.718 222.224 -108.017 221.381C-106.317 220.537 -104.84 219.305 -103.706 217.783C-105.462 217.531 -107.148 216.923 -108.66 215.998C-110.173 215.072 -111.482 213.848 -112.505 212.399C-115.358 209.267 -117.899 205.864 -120.091 202.238C-125.082 192.66 -127.463 181.937 -126.993 171.148C-126.796 151.216 -121.242 131.704 -110.912 114.655C-92.6582 82.5199 -63.0238 58.3873 -27.8513 47.0145C10.3535 34.3523 50.3856 28.0753 90.6337 28.4362C135.729 28.7072 180.748 32.1788 225.352 38.8249C272.533 45.6496 317.439 50.7049 360.07 53.9908C345.071 62.8389 331.06 73.2613 318.274 85.081C304.205 97.8551 290.907 111.453 278.45 125.802C251.084 156.611 226.249 189.577 204.188 224.38C182.898 258.352 160.445 293.284 136.829 329.177C101.43 385.089 66.3602 440.698 31.6188 496.003C-1.66486 549.285 -41.2702 598.349 -86.3352 642.127C-105.187 659.106 -126.585 673.026 -149.75 683.378C-170.265 692.966 -192.569 698.133 -215.212 698.544C-228.157 698.693 -240.992 696.163 -252.91 691.112C-264.829 686.062 -275.573 678.601 -284.468 669.198C-303.836 649.735 -313.52 617.609 -313.52 572.818C-313.354 543.323 -306.861 514.207 -294.48 487.434C-282.21 459.841 -265.815 434.272 -245.858 411.604C-227.31 389.831 -205.106 371.458 -180.243 357.31C-159.176 344.974 -135.32 338.19 -110.912 337.594C-107.65 337.594 -106.361 336.154 -107.044 333.424C-107.726 330.694 -110.609 329.177 -115.843 329.177C-144.459 329.497 -172.599 336.536 -197.993 349.727C-225.597 363.634 -250.551 382.266 -271.724 404.78C-293.634 427.833 -311.576 454.352 -324.822 483.263C-338.166 511.956 -345.053 543.224 -345 574.866C-345 609.242 -338.426 637.046 -325.277 658.279C-313.031 678.782 -294.64 694.912 -272.71 704.383C-250.208 714.106 -225.92 719.014 -201.407 718.791C-160.324 719.029 -119.985 707.845 -84.894 686.487C-47.8144 663.647 -14.541 635.144 13.7171 602.013C44.6448 566.209 72.9128 528.193 98.295 488.268C124.692 447.017 149.345 406.827 172.253 367.699H318.729C299.057 397.222 280.549 427.149 263.203 457.481C245.858 487.813 230.687 516.957 217.69 544.913C210.51 559.965 204.598 575.59 200.016 591.624C195.716 605.589 193.393 620.087 193.113 634.696C192.56 647.223 196.014 659.6 202.975 670.032C209.498 679.284 220.952 683.833 237.337 683.833C261.482 683.869 284.91 675.625 303.71 660.478C323.937 644.907 349.02 615.561 378.957 572.439C380.702 569.785 386.543 563.719 389.88 557.88V827H436.531V484.477C436.531 480.609 436.531 480.382 436.531 477.5C468.466 477.5 505.862 478.259 537.797 478.183V827H584.448V363.377C620.455 346.536 659.488 337.122 699.216 335.699L720 306.732ZM389.653 489.633V519.965C382.215 536.541 373.543 552.535 363.711 567.814C352.332 582.98 340.954 598.146 334.507 606.259C320.58 623.404 304.344 638.537 286.263 651.227C277.939 657.596 268.118 661.721 257.742 663.208C246.591 663.208 241.054 654.79 241.054 638.032C241.685 617.124 247.082 596.635 256.831 578.127C269.571 549.732 284.01 522.131 300.068 495.472C319.74 461.955 341.864 426.037 366.441 387.718C374.027 375.813 381.612 364.514 389.653 352.76V489.633ZM537.342 461.728H452.233C476.367 436.275 503.085 413.403 531.956 393.481L537.342 389.841V461.728Z" fill="#2D333E"/>
</svg>
